G04 #@! TF.FileFunction,Legend,Top*
%FSLAX46Y46*%
G04 Gerber Fmt 4.6, Leading zero omitted, Abs format (unit mm)*
G04 Created by KiCad (PCBNEW 4.0.5-e0-6337~49~ubuntu15.04.1) date Sun Dec 17 23:25:19 2017*
%MOMM*%
%LPD*%
G01*
G04 APERTURE LIST*
%ADD10C,0.100000*%
%ADD11C,0.150000*%
%ADD12C,0.200000*%
%ADD13C,0.120000*%
G04 APERTURE END LIST*
D10*
D11*
X143377357Y-83443428D02*
X143944024Y-83281524D01*
X143539262Y-83119619D01*
X143944024Y-82957714D01*
X143377357Y-82795809D01*
X143944024Y-82472000D02*
X143377357Y-82472000D01*
X143094024Y-82472000D02*
X143134500Y-82512476D01*
X143174976Y-82472000D01*
X143134500Y-82431524D01*
X143094024Y-82472000D01*
X143174976Y-82472000D01*
X143944024Y-81945809D02*
X143903548Y-82026762D01*
X143822595Y-82067238D01*
X143094024Y-82067238D01*
X143944024Y-81500571D02*
X143903548Y-81581524D01*
X143822595Y-81622000D01*
X143094024Y-81622000D01*
X143944024Y-81176762D02*
X143377357Y-81176762D01*
X143094024Y-81176762D02*
X143134500Y-81217238D01*
X143174976Y-81176762D01*
X143134500Y-81136286D01*
X143094024Y-81176762D01*
X143174976Y-81176762D01*
X143944024Y-80407714D02*
X143498786Y-80407714D01*
X143417833Y-80448191D01*
X143377357Y-80529143D01*
X143377357Y-80691048D01*
X143417833Y-80772000D01*
X143903548Y-80407714D02*
X143944024Y-80488667D01*
X143944024Y-80691048D01*
X143903548Y-80772000D01*
X143822595Y-80812476D01*
X143741643Y-80812476D01*
X143660690Y-80772000D01*
X143620214Y-80691048D01*
X143620214Y-80488667D01*
X143579738Y-80407714D01*
X143944024Y-80002952D02*
X143377357Y-80002952D01*
X143458310Y-80002952D02*
X143417833Y-79962476D01*
X143377357Y-79881523D01*
X143377357Y-79760095D01*
X143417833Y-79679143D01*
X143498786Y-79638666D01*
X143944024Y-79638666D01*
X143498786Y-79638666D02*
X143417833Y-79598190D01*
X143377357Y-79517238D01*
X143377357Y-79395809D01*
X143417833Y-79314857D01*
X143498786Y-79274381D01*
X143944024Y-79274381D01*
X143539262Y-78343429D02*
X143498786Y-78383905D01*
X143458310Y-78464857D01*
X143458310Y-78545810D01*
X143498786Y-78626762D01*
X143539262Y-78667238D01*
X143620214Y-78707714D01*
X143701167Y-78707714D01*
X143782119Y-78667238D01*
X143822595Y-78626762D01*
X143863071Y-78545810D01*
X143863071Y-78464857D01*
X143822595Y-78383905D01*
X143782119Y-78343429D01*
X143458310Y-78343429D02*
X143782119Y-78343429D01*
X143822595Y-78302952D01*
X143822595Y-78262476D01*
X143782119Y-78181524D01*
X143701167Y-78141048D01*
X143498786Y-78141048D01*
X143377357Y-78222000D01*
X143296405Y-78343429D01*
X143255929Y-78505333D01*
X143296405Y-78667238D01*
X143377357Y-78788667D01*
X143498786Y-78869619D01*
X143660690Y-78910095D01*
X143822595Y-78869619D01*
X143944024Y-78788667D01*
X144024976Y-78667238D01*
X144065452Y-78505333D01*
X144024976Y-78343429D01*
X143944024Y-78222000D01*
X145369024Y-86216047D02*
X144519024Y-86216047D01*
X144842833Y-86216047D02*
X144802357Y-86135095D01*
X144802357Y-85973190D01*
X144842833Y-85892238D01*
X144883310Y-85851761D01*
X144964262Y-85811285D01*
X145207119Y-85811285D01*
X145288071Y-85851761D01*
X145328548Y-85892238D01*
X145369024Y-85973190D01*
X145369024Y-86135095D01*
X145328548Y-86216047D01*
X145369024Y-85446999D02*
X144802357Y-85446999D01*
X144964262Y-85446999D02*
X144883310Y-85406523D01*
X144842833Y-85366047D01*
X144802357Y-85285094D01*
X144802357Y-85204142D01*
X145369024Y-84799380D02*
X145328548Y-84880333D01*
X145288071Y-84920809D01*
X145207119Y-84961285D01*
X144964262Y-84961285D01*
X144883310Y-84920809D01*
X144842833Y-84880333D01*
X144802357Y-84799380D01*
X144802357Y-84677952D01*
X144842833Y-84597000D01*
X144883310Y-84556523D01*
X144964262Y-84516047D01*
X145207119Y-84516047D01*
X145288071Y-84556523D01*
X145328548Y-84597000D01*
X145369024Y-84677952D01*
X145369024Y-84799380D01*
X145369024Y-83787475D02*
X144519024Y-83787475D01*
X145328548Y-83787475D02*
X145369024Y-83868428D01*
X145369024Y-84030332D01*
X145328548Y-84111285D01*
X145288071Y-84151761D01*
X145207119Y-84192237D01*
X144964262Y-84192237D01*
X144883310Y-84151761D01*
X144842833Y-84111285D01*
X144802357Y-84030332D01*
X144802357Y-83868428D01*
X144842833Y-83787475D01*
X145369024Y-83382713D02*
X144802357Y-83382713D01*
X144519024Y-83382713D02*
X144559500Y-83423189D01*
X144599976Y-83382713D01*
X144559500Y-83342237D01*
X144519024Y-83382713D01*
X144599976Y-83382713D01*
X145328548Y-82654142D02*
X145369024Y-82735094D01*
X145369024Y-82896999D01*
X145328548Y-82977951D01*
X145247595Y-83018427D01*
X144923786Y-83018427D01*
X144842833Y-82977951D01*
X144802357Y-82896999D01*
X144802357Y-82735094D01*
X144842833Y-82654142D01*
X144923786Y-82613665D01*
X145004738Y-82613665D01*
X145085690Y-83018427D01*
X145045214Y-82249380D02*
X145045214Y-81601761D01*
X144802357Y-81318428D02*
X144802357Y-80994618D01*
X144519024Y-81196999D02*
X145247595Y-81196999D01*
X145328548Y-81156523D01*
X145369024Y-81075570D01*
X145369024Y-80994618D01*
X144802357Y-80792237D02*
X145369024Y-80589856D01*
X144802357Y-80387476D02*
X145369024Y-80589856D01*
X145571405Y-80670809D01*
X145611881Y-80711285D01*
X145652357Y-80792237D01*
X145369024Y-80063666D02*
X144802357Y-80063666D01*
X144964262Y-80063666D02*
X144883310Y-80023190D01*
X144842833Y-79982714D01*
X144802357Y-79901761D01*
X144802357Y-79820809D01*
X145369024Y-79537476D02*
X144802357Y-79537476D01*
X144964262Y-79537476D02*
X144883310Y-79497000D01*
X144842833Y-79456524D01*
X144802357Y-79375571D01*
X144802357Y-79294619D01*
X145328548Y-78687477D02*
X145369024Y-78768429D01*
X145369024Y-78930334D01*
X145328548Y-79011286D01*
X145247595Y-79051762D01*
X144923786Y-79051762D01*
X144842833Y-79011286D01*
X144802357Y-78930334D01*
X144802357Y-78768429D01*
X144842833Y-78687477D01*
X144923786Y-78647000D01*
X145004738Y-78647000D01*
X145085690Y-79051762D01*
X145369024Y-78161286D02*
X145328548Y-78242239D01*
X145247595Y-78282715D01*
X144519024Y-78282715D01*
X145369024Y-77716048D02*
X145328548Y-77797001D01*
X145247595Y-77837477D01*
X144519024Y-77837477D01*
X145288071Y-77392239D02*
X145328548Y-77351763D01*
X145369024Y-77392239D01*
X145328548Y-77432715D01*
X145288071Y-77392239D01*
X145369024Y-77392239D01*
X145369024Y-76866048D02*
X145328548Y-76947001D01*
X145288071Y-76987477D01*
X145207119Y-77027953D01*
X144964262Y-77027953D01*
X144883310Y-76987477D01*
X144842833Y-76947001D01*
X144802357Y-76866048D01*
X144802357Y-76744620D01*
X144842833Y-76663668D01*
X144883310Y-76623191D01*
X144964262Y-76582715D01*
X145207119Y-76582715D01*
X145288071Y-76623191D01*
X145328548Y-76663668D01*
X145369024Y-76744620D01*
X145369024Y-76866048D01*
X145369024Y-76218429D02*
X144802357Y-76218429D01*
X144964262Y-76218429D02*
X144883310Y-76177953D01*
X144842833Y-76137477D01*
X144802357Y-76056524D01*
X144802357Y-75975572D01*
X144802357Y-75327953D02*
X145490452Y-75327953D01*
X145571405Y-75368430D01*
X145611881Y-75408906D01*
X145652357Y-75489858D01*
X145652357Y-75611287D01*
X145611881Y-75692239D01*
X145328548Y-75327953D02*
X145369024Y-75408906D01*
X145369024Y-75570810D01*
X145328548Y-75651763D01*
X145288071Y-75692239D01*
X145207119Y-75732715D01*
X144964262Y-75732715D01*
X144883310Y-75692239D01*
X144842833Y-75651763D01*
X144802357Y-75570810D01*
X144802357Y-75408906D01*
X144842833Y-75327953D01*
D12*
X121936000Y-82113429D02*
X122697905Y-82113429D01*
X122316953Y-82494381D02*
X122316953Y-81732476D01*
X121361429Y-79102000D02*
X121285238Y-79063905D01*
X121170953Y-79063905D01*
X121056667Y-79102000D01*
X120980476Y-79178190D01*
X120942381Y-79254381D01*
X120904286Y-79406762D01*
X120904286Y-79521048D01*
X120942381Y-79673429D01*
X120980476Y-79749619D01*
X121056667Y-79825810D01*
X121170953Y-79863905D01*
X121247143Y-79863905D01*
X121361429Y-79825810D01*
X121399524Y-79787714D01*
X121399524Y-79521048D01*
X121247143Y-79521048D01*
X121742381Y-79863905D02*
X121742381Y-79063905D01*
X122199524Y-79863905D01*
X122199524Y-79063905D01*
X122580476Y-79863905D02*
X122580476Y-79063905D01*
X122770952Y-79063905D01*
X122885238Y-79102000D01*
X122961429Y-79178190D01*
X122999524Y-79254381D01*
X123037619Y-79406762D01*
X123037619Y-79521048D01*
X122999524Y-79673429D01*
X122961429Y-79749619D01*
X122885238Y-79825810D01*
X122770952Y-79863905D01*
X122580476Y-79863905D01*
X121640762Y-84397905D02*
X121793143Y-84397905D01*
X121869334Y-84436000D01*
X121945524Y-84512190D01*
X121983619Y-84664571D01*
X121983619Y-84931238D01*
X121945524Y-85083619D01*
X121869334Y-85159810D01*
X121793143Y-85197905D01*
X121640762Y-85197905D01*
X121564572Y-85159810D01*
X121488381Y-85083619D01*
X121450286Y-84931238D01*
X121450286Y-84664571D01*
X121488381Y-84512190D01*
X121564572Y-84436000D01*
X121640762Y-84397905D01*
X122326476Y-85197905D02*
X122326476Y-84397905D01*
X122516952Y-84397905D01*
X122631238Y-84436000D01*
X122707429Y-84512190D01*
X122745524Y-84588381D01*
X122783619Y-84740762D01*
X122783619Y-84855048D01*
X122745524Y-85007429D01*
X122707429Y-85083619D01*
X122631238Y-85159810D01*
X122516952Y-85197905D01*
X122326476Y-85197905D01*
X121936000Y-77033429D02*
X122697905Y-77033429D01*
X122316953Y-77414381D02*
X122316953Y-76652476D01*
D13*
X132580000Y-81192000D02*
X131580000Y-81192000D01*
X131580000Y-82892000D02*
X132580000Y-82892000D01*
X136564000Y-76716000D02*
X136564000Y-77716000D01*
X138264000Y-77716000D02*
X138264000Y-76716000D01*
D11*
X129463800Y-86072980D02*
X129463800Y-75471020D01*
X129065020Y-75471020D02*
X129065020Y-86072980D01*
X123764040Y-75471020D02*
X123764040Y-86072980D01*
X123266200Y-86072980D02*
X123266200Y-75471020D01*
X123764040Y-83268820D02*
X123266200Y-83268820D01*
X123764040Y-80772000D02*
X123266200Y-80772000D01*
X123266200Y-75674220D02*
X123764040Y-75674220D01*
X123764040Y-85872320D02*
X123266200Y-85872320D01*
X123266200Y-78275180D02*
X123764040Y-78275180D01*
X123266200Y-86070440D02*
X129463800Y-86070440D01*
X129463800Y-75476100D02*
X123266200Y-75476100D01*
D13*
X138694000Y-85342000D02*
X139624000Y-85342000D01*
X141854000Y-85342000D02*
X140924000Y-85342000D01*
X141854000Y-85342000D02*
X141854000Y-83182000D01*
X138694000Y-85342000D02*
X138694000Y-83882000D01*
X137506000Y-82922000D02*
X136306000Y-82922000D01*
X136306000Y-81162000D02*
X137506000Y-81162000D01*
X134705000Y-79432000D02*
X134705000Y-80632000D01*
X134705000Y-80632000D02*
X132005000Y-80632000D01*
X130705000Y-75832000D02*
X134705000Y-75832000D01*
X134705000Y-75832000D02*
X134705000Y-77032000D01*
X141222000Y-82352000D02*
X141222000Y-81422000D01*
X141222000Y-79192000D02*
X141222000Y-80122000D01*
X141222000Y-79192000D02*
X139062000Y-79192000D01*
X141222000Y-82352000D02*
X139762000Y-82352000D01*
X135354000Y-83836000D02*
X131054000Y-83836000D01*
X131054000Y-83836000D02*
X131054000Y-85836000D01*
X131054000Y-85836000D02*
X135354000Y-85836000D01*
X144294000Y-77408000D02*
X144294000Y-76008000D01*
X144294000Y-76008000D02*
X141494000Y-76008000D01*
X144294000Y-77408000D02*
X141494000Y-77408000D01*
X138566000Y-77816000D02*
X138566000Y-76616000D01*
X140326000Y-76616000D02*
X140326000Y-77816000D01*
D11*
X134977143Y-82208666D02*
X135024762Y-82256285D01*
X135072381Y-82399142D01*
X135072381Y-82494380D01*
X135024762Y-82637238D01*
X134929524Y-82732476D01*
X134834286Y-82780095D01*
X134643810Y-82827714D01*
X134500952Y-82827714D01*
X134310476Y-82780095D01*
X134215238Y-82732476D01*
X134120000Y-82637238D01*
X134072381Y-82494380D01*
X134072381Y-82399142D01*
X134120000Y-82256285D01*
X134167619Y-82208666D01*
X135072381Y-81256285D02*
X135072381Y-81827714D01*
X135072381Y-81542000D02*
X134072381Y-81542000D01*
X134215238Y-81637238D01*
X134310476Y-81732476D01*
X134358095Y-81827714D01*
X136247143Y-76112666D02*
X136294762Y-76160285D01*
X136342381Y-76303142D01*
X136342381Y-76398380D01*
X136294762Y-76541238D01*
X136199524Y-76636476D01*
X136104286Y-76684095D01*
X135913810Y-76731714D01*
X135770952Y-76731714D01*
X135580476Y-76684095D01*
X135485238Y-76636476D01*
X135390000Y-76541238D01*
X135342381Y-76398380D01*
X135342381Y-76303142D01*
X135390000Y-76160285D01*
X135437619Y-76112666D01*
X135437619Y-75731714D02*
X135390000Y-75684095D01*
X135342381Y-75588857D01*
X135342381Y-75350761D01*
X135390000Y-75255523D01*
X135437619Y-75207904D01*
X135532857Y-75160285D01*
X135628095Y-75160285D01*
X135770952Y-75207904D01*
X136342381Y-75779333D01*
X136342381Y-75160285D01*
X127722381Y-81105333D02*
X128436667Y-81105333D01*
X128579524Y-81152953D01*
X128674762Y-81248191D01*
X128722381Y-81391048D01*
X128722381Y-81486286D01*
X128722381Y-80105333D02*
X128722381Y-80676762D01*
X128722381Y-80391048D02*
X127722381Y-80391048D01*
X127865238Y-80486286D01*
X127960476Y-80581524D01*
X128008095Y-80676762D01*
X138588762Y-86399619D02*
X138493524Y-86352000D01*
X138398286Y-86256762D01*
X138255429Y-86113905D01*
X138160190Y-86066286D01*
X138064952Y-86066286D01*
X138112571Y-86304381D02*
X138017333Y-86256762D01*
X137922095Y-86161524D01*
X137874476Y-85971048D01*
X137874476Y-85637714D01*
X137922095Y-85447238D01*
X138017333Y-85352000D01*
X138112571Y-85304381D01*
X138303048Y-85304381D01*
X138398286Y-85352000D01*
X138493524Y-85447238D01*
X138541143Y-85637714D01*
X138541143Y-85971048D01*
X138493524Y-86161524D01*
X138398286Y-86256762D01*
X138303048Y-86304381D01*
X138112571Y-86304381D01*
X139493524Y-86304381D02*
X138922095Y-86304381D01*
X139207809Y-86304381D02*
X139207809Y-85304381D01*
X139112571Y-85447238D01*
X139017333Y-85542476D01*
X138922095Y-85590095D01*
X137247334Y-80970381D02*
X136914000Y-80494190D01*
X136675905Y-80970381D02*
X136675905Y-79970381D01*
X137056858Y-79970381D01*
X137152096Y-80018000D01*
X137199715Y-80065619D01*
X137247334Y-80160857D01*
X137247334Y-80303714D01*
X137199715Y-80398952D01*
X137152096Y-80446571D01*
X137056858Y-80494190D01*
X136675905Y-80494190D01*
X138199715Y-80970381D02*
X137628286Y-80970381D01*
X137914000Y-80970381D02*
X137914000Y-79970381D01*
X137818762Y-80113238D01*
X137723524Y-80208476D01*
X137628286Y-80256095D01*
X132842095Y-79462381D02*
X132842095Y-80271905D01*
X132889714Y-80367143D01*
X132937333Y-80414762D01*
X133032571Y-80462381D01*
X133223048Y-80462381D01*
X133318286Y-80414762D01*
X133365905Y-80367143D01*
X133413524Y-80271905D01*
X133413524Y-79462381D01*
X134413524Y-80462381D02*
X133842095Y-80462381D01*
X134127809Y-80462381D02*
X134127809Y-79462381D01*
X134032571Y-79605238D01*
X133937333Y-79700476D01*
X133842095Y-79748095D01*
X140462095Y-81494381D02*
X140462095Y-82303905D01*
X140509714Y-82399143D01*
X140557333Y-82446762D01*
X140652571Y-82494381D01*
X140843048Y-82494381D01*
X140938286Y-82446762D01*
X140985905Y-82399143D01*
X141033524Y-82303905D01*
X141033524Y-81494381D01*
X141462095Y-81589619D02*
X141509714Y-81542000D01*
X141604952Y-81494381D01*
X141843048Y-81494381D01*
X141938286Y-81542000D01*
X141985905Y-81589619D01*
X142033524Y-81684857D01*
X142033524Y-81780095D01*
X141985905Y-81922952D01*
X141414476Y-82494381D01*
X142033524Y-82494381D01*
X137612381Y-84812095D02*
X136612381Y-84812095D01*
X136612381Y-84574000D01*
X136660000Y-84431142D01*
X136755238Y-84335904D01*
X136850476Y-84288285D01*
X137040952Y-84240666D01*
X137183810Y-84240666D01*
X137374286Y-84288285D01*
X137469524Y-84335904D01*
X137564762Y-84431142D01*
X137612381Y-84574000D01*
X137612381Y-84812095D01*
X137612381Y-83288285D02*
X137612381Y-83859714D01*
X137612381Y-83574000D02*
X136612381Y-83574000D01*
X136755238Y-83669238D01*
X136850476Y-83764476D01*
X136898095Y-83859714D01*
X140739905Y-78684381D02*
X140739905Y-77684381D01*
X140978000Y-77684381D01*
X141120858Y-77732000D01*
X141216096Y-77827238D01*
X141263715Y-77922476D01*
X141311334Y-78112952D01*
X141311334Y-78255810D01*
X141263715Y-78446286D01*
X141216096Y-78541524D01*
X141120858Y-78636762D01*
X140978000Y-78684381D01*
X140739905Y-78684381D01*
X141692286Y-77779619D02*
X141739905Y-77732000D01*
X141835143Y-77684381D01*
X142073239Y-77684381D01*
X142168477Y-77732000D01*
X142216096Y-77779619D01*
X142263715Y-77874857D01*
X142263715Y-77970095D01*
X142216096Y-78112952D01*
X141644667Y-78684381D01*
X142263715Y-78684381D01*
X139279334Y-77668381D02*
X138946000Y-77192190D01*
X138707905Y-77668381D02*
X138707905Y-76668381D01*
X139088858Y-76668381D01*
X139184096Y-76716000D01*
X139231715Y-76763619D01*
X139279334Y-76858857D01*
X139279334Y-77001714D01*
X139231715Y-77096952D01*
X139184096Y-77144571D01*
X139088858Y-77192190D01*
X138707905Y-77192190D01*
X139660286Y-76763619D02*
X139707905Y-76716000D01*
X139803143Y-76668381D01*
X140041239Y-76668381D01*
X140136477Y-76716000D01*
X140184096Y-76763619D01*
X140231715Y-76858857D01*
X140231715Y-76954095D01*
X140184096Y-77096952D01*
X139612667Y-77668381D01*
X140231715Y-77668381D01*
M02*
