G04 #@! TF.FileFunction,Copper,L1,Top,Signal*
%FSLAX46Y46*%
G04 Gerber Fmt 4.6, Leading zero omitted, Abs format (unit mm)*
G04 Created by KiCad (PCBNEW 4.0.5-e0-6337~49~ubuntu15.04.1) date Sun Dec 17 23:25:19 2017*
%MOMM*%
%LPD*%
G01*
G04 APERTURE LIST*
%ADD10C,0.100000*%
%ADD11C,0.500000*%
%ADD12R,1.000000X1.250000*%
%ADD13R,1.250000X1.000000*%
%ADD14O,1.998980X1.998980*%
%ADD15R,1.998980X1.998980*%
%ADD16R,0.800000X0.900000*%
%ADD17R,0.700000X1.300000*%
%ADD18R,1.500000X1.000000*%
%ADD19R,1.800000X1.000000*%
%ADD20R,1.840000X2.200000*%
%ADD21R,0.900000X0.800000*%
%ADD22R,1.300000X1.700000*%
%ADD23R,1.200000X1.200000*%
%ADD24R,1.300000X0.700000*%
%ADD25C,0.600000*%
%ADD26C,1.500000*%
%ADD27C,0.500000*%
%ADD28C,0.200000*%
G04 APERTURE END LIST*
D10*
D11*
X128778000Y-85090000D03*
X148590000Y-85090000D03*
D12*
X131080000Y-82042000D03*
X133080000Y-82042000D03*
D13*
X137414000Y-78216000D03*
X137414000Y-76216000D03*
D14*
X126365000Y-84582000D03*
D15*
X126365000Y-76962000D03*
D14*
X126365000Y-79502000D03*
X126365000Y-82042000D03*
D16*
X141224000Y-83582000D03*
X139324000Y-83582000D03*
X140274000Y-85582000D03*
D17*
X135956000Y-82042000D03*
X137856000Y-82042000D03*
D10*
G36*
X135167000Y-77132000D02*
X136017000Y-77732000D01*
X136017000Y-78732000D01*
X135167000Y-79332000D01*
X135167000Y-77132000D01*
X135167000Y-77132000D01*
G37*
D18*
X131445000Y-76732000D03*
D19*
X131591500Y-78232000D03*
D18*
X131445000Y-79732000D03*
D20*
X134258500Y-78232000D03*
D10*
G36*
X133348800Y-79332000D02*
X132348800Y-78632000D01*
X132348800Y-77832000D01*
X133348800Y-77132000D01*
X133348800Y-79332000D01*
X133348800Y-79332000D01*
G37*
D21*
X139462000Y-79822000D03*
X139462000Y-81722000D03*
X141462000Y-80772000D03*
D11*
X148590000Y-76454000D03*
D22*
X131854000Y-84836000D03*
X135354000Y-84836000D03*
D23*
X141394000Y-76708000D03*
X143594000Y-76708000D03*
D24*
X139446000Y-76266000D03*
X139446000Y-78166000D03*
D25*
X136144000Y-75946000D03*
X141351000Y-79629000D03*
X138430000Y-83820000D03*
X129794000Y-76708000D03*
X134112000Y-82042000D03*
X134112000Y-84836000D03*
D26*
X134258500Y-78232000D02*
X132848800Y-78232000D01*
X135592000Y-78232000D02*
X134258500Y-78232000D01*
X126365000Y-76962000D02*
X126873000Y-77470000D01*
X136144000Y-75946000D02*
X137144000Y-75946000D01*
X137144000Y-75946000D02*
X137414000Y-76216000D01*
X141462000Y-80772000D02*
X141462000Y-79740000D01*
X141462000Y-79740000D02*
X141351000Y-79629000D01*
X139324000Y-83582000D02*
X138668000Y-83582000D01*
X138668000Y-83582000D02*
X138430000Y-83820000D01*
X131445000Y-76732000D02*
X129818000Y-76732000D01*
X129818000Y-76732000D02*
X129794000Y-76708000D01*
X133080000Y-82042000D02*
X134112000Y-82042000D01*
D27*
X137414000Y-78216000D02*
X139396000Y-78216000D01*
X139396000Y-78216000D02*
X139446000Y-78166000D01*
X137414000Y-79502000D02*
X137734000Y-79822000D01*
X137734000Y-79822000D02*
X139462000Y-79822000D01*
X137414000Y-79502000D02*
X137414000Y-78216000D01*
X136024000Y-80892000D02*
X137414000Y-79502000D01*
X135956000Y-80892000D02*
X136024000Y-80892000D01*
X135397990Y-80841990D02*
X135905990Y-80841990D01*
X135905990Y-80841990D02*
X135956000Y-80892000D01*
X135956000Y-80892000D02*
X135956000Y-82042000D01*
X131802000Y-79732000D02*
X132911990Y-80841990D01*
X132911990Y-80841990D02*
X135397990Y-80841990D01*
X131445000Y-79732000D02*
X131802000Y-79732000D01*
X143623447Y-76719920D02*
X143594000Y-76749367D01*
X143594000Y-76749367D02*
X143594000Y-84498000D01*
X143594000Y-84498000D02*
X142510000Y-85582000D01*
X142510000Y-85582000D02*
X140274000Y-85582000D01*
D26*
X137144000Y-85582000D02*
X140274000Y-85582000D01*
X135354000Y-84836000D02*
X136398000Y-84836000D01*
X136398000Y-84836000D02*
X137144000Y-85582000D01*
X134112000Y-84836000D02*
X135354000Y-84836000D01*
D27*
X139462000Y-81722000D02*
X139462000Y-81820000D01*
X139462000Y-81820000D02*
X141224000Y-83582000D01*
X137856000Y-82042000D02*
X139142000Y-82042000D01*
X139142000Y-82042000D02*
X139462000Y-81722000D01*
X141394000Y-76708000D02*
X139888000Y-76708000D01*
X139888000Y-76708000D02*
X139446000Y-76266000D01*
D28*
G36*
X128994892Y-76050314D02*
X128823926Y-76306182D01*
X128744000Y-76708000D01*
X128823926Y-77109818D01*
X129051538Y-77450462D01*
X129075538Y-77474462D01*
X129416182Y-77702074D01*
X129818000Y-77782000D01*
X130083500Y-77782000D01*
X130083500Y-77926000D01*
X130235500Y-78078000D01*
X131437500Y-78078000D01*
X131437500Y-78058000D01*
X131728889Y-78058000D01*
X131728889Y-78078000D01*
X133022800Y-78078000D01*
X133022800Y-78386000D01*
X131728889Y-78386000D01*
X131728889Y-78406000D01*
X131437500Y-78406000D01*
X131437500Y-78386000D01*
X130235500Y-78386000D01*
X130083500Y-78538000D01*
X130083500Y-78852939D01*
X130176063Y-79076405D01*
X130347096Y-79247438D01*
X130389123Y-79264846D01*
X130389123Y-80232000D01*
X130410042Y-80343173D01*
X130475745Y-80445279D01*
X130575997Y-80513778D01*
X130695000Y-80537877D01*
X131472000Y-80537877D01*
X131472000Y-80809000D01*
X131386000Y-80809000D01*
X131234000Y-80961000D01*
X131234000Y-81888000D01*
X131254000Y-81888000D01*
X131254000Y-82196000D01*
X131234000Y-82196000D01*
X131234000Y-83123000D01*
X131386000Y-83275000D01*
X131700939Y-83275000D01*
X131842812Y-83216234D01*
X132082289Y-83455711D01*
X132008000Y-83530000D01*
X132008000Y-84682000D01*
X132028000Y-84682000D01*
X132028000Y-84990000D01*
X130402000Y-84990000D01*
X130402000Y-83865062D01*
X130596000Y-83865062D01*
X130596000Y-84530000D01*
X130748000Y-84682000D01*
X131700000Y-84682000D01*
X131700000Y-83530000D01*
X131548000Y-83378000D01*
X131083061Y-83378000D01*
X130859595Y-83470563D01*
X130688562Y-83641596D01*
X130596000Y-83865062D01*
X130402000Y-83865062D01*
X130402000Y-83566000D01*
X130394121Y-83527094D01*
X130371727Y-83494319D01*
X130338346Y-83472839D01*
X130302000Y-83466000D01*
X127086850Y-83466000D01*
X127180931Y-83427033D01*
X127648851Y-83009360D01*
X127921316Y-82444416D01*
X127879318Y-82348000D01*
X129972000Y-82348000D01*
X129972000Y-82787938D01*
X130064562Y-83011404D01*
X130235595Y-83182437D01*
X130459061Y-83275000D01*
X130774000Y-83275000D01*
X130926000Y-83123000D01*
X130926000Y-82196000D01*
X130124000Y-82196000D01*
X129972000Y-82348000D01*
X127879318Y-82348000D01*
X127813107Y-82196000D01*
X126519000Y-82196000D01*
X126519000Y-82216000D01*
X126211000Y-82216000D01*
X126211000Y-82196000D01*
X124916893Y-82196000D01*
X124808684Y-82444416D01*
X125081149Y-83009360D01*
X125549069Y-83427033D01*
X125643150Y-83466000D01*
X124560000Y-83466000D01*
X124560000Y-77268000D01*
X124757510Y-77268000D01*
X124757510Y-78082429D01*
X124850073Y-78305895D01*
X125021106Y-78476928D01*
X125244572Y-78569490D01*
X125438219Y-78569490D01*
X125164428Y-78979248D01*
X125065510Y-79476541D01*
X125065510Y-79527459D01*
X125164428Y-80024752D01*
X125446122Y-80446337D01*
X125680119Y-80602688D01*
X125549069Y-80656967D01*
X125081149Y-81074640D01*
X124808684Y-81639584D01*
X124916893Y-81888000D01*
X126211000Y-81888000D01*
X126211000Y-81868000D01*
X126519000Y-81868000D01*
X126519000Y-81888000D01*
X127813107Y-81888000D01*
X127921316Y-81639584D01*
X127755640Y-81296062D01*
X129972000Y-81296062D01*
X129972000Y-81736000D01*
X130124000Y-81888000D01*
X130926000Y-81888000D01*
X130926000Y-80961000D01*
X130774000Y-80809000D01*
X130459061Y-80809000D01*
X130235595Y-80901563D01*
X130064562Y-81072596D01*
X129972000Y-81296062D01*
X127755640Y-81296062D01*
X127648851Y-81074640D01*
X127180931Y-80656967D01*
X127049881Y-80602688D01*
X127283878Y-80446337D01*
X127565572Y-80024752D01*
X127664490Y-79527459D01*
X127664490Y-79476541D01*
X127565572Y-78979248D01*
X127291781Y-78569490D01*
X127485428Y-78569490D01*
X127708894Y-78476928D01*
X127879927Y-78305895D01*
X127972490Y-78082429D01*
X127972490Y-77268000D01*
X127820490Y-77116000D01*
X126519000Y-77116000D01*
X126519000Y-77136000D01*
X126211000Y-77136000D01*
X126211000Y-77116000D01*
X124909510Y-77116000D01*
X124757510Y-77268000D01*
X124560000Y-77268000D01*
X124560000Y-75841571D01*
X124757510Y-75841571D01*
X124757510Y-76656000D01*
X124909510Y-76808000D01*
X126211000Y-76808000D01*
X126211000Y-75506510D01*
X126519000Y-75506510D01*
X126519000Y-76808000D01*
X127820490Y-76808000D01*
X127972490Y-76656000D01*
X127972490Y-75841571D01*
X127879927Y-75618105D01*
X127708894Y-75447072D01*
X127485428Y-75354510D01*
X126671000Y-75354510D01*
X126519000Y-75506510D01*
X126211000Y-75506510D01*
X126059000Y-75354510D01*
X125244572Y-75354510D01*
X125021106Y-75447072D01*
X124850073Y-75618105D01*
X124757510Y-75841571D01*
X124560000Y-75841571D01*
X124560000Y-75305000D01*
X128249578Y-75305000D01*
X128994892Y-76050314D01*
X128994892Y-76050314D01*
G37*
X128994892Y-76050314D02*
X128823926Y-76306182D01*
X128744000Y-76708000D01*
X128823926Y-77109818D01*
X129051538Y-77450462D01*
X129075538Y-77474462D01*
X129416182Y-77702074D01*
X129818000Y-77782000D01*
X130083500Y-77782000D01*
X130083500Y-77926000D01*
X130235500Y-78078000D01*
X131437500Y-78078000D01*
X131437500Y-78058000D01*
X131728889Y-78058000D01*
X131728889Y-78078000D01*
X133022800Y-78078000D01*
X133022800Y-78386000D01*
X131728889Y-78386000D01*
X131728889Y-78406000D01*
X131437500Y-78406000D01*
X131437500Y-78386000D01*
X130235500Y-78386000D01*
X130083500Y-78538000D01*
X130083500Y-78852939D01*
X130176063Y-79076405D01*
X130347096Y-79247438D01*
X130389123Y-79264846D01*
X130389123Y-80232000D01*
X130410042Y-80343173D01*
X130475745Y-80445279D01*
X130575997Y-80513778D01*
X130695000Y-80537877D01*
X131472000Y-80537877D01*
X131472000Y-80809000D01*
X131386000Y-80809000D01*
X131234000Y-80961000D01*
X131234000Y-81888000D01*
X131254000Y-81888000D01*
X131254000Y-82196000D01*
X131234000Y-82196000D01*
X131234000Y-83123000D01*
X131386000Y-83275000D01*
X131700939Y-83275000D01*
X131842812Y-83216234D01*
X132082289Y-83455711D01*
X132008000Y-83530000D01*
X132008000Y-84682000D01*
X132028000Y-84682000D01*
X132028000Y-84990000D01*
X130402000Y-84990000D01*
X130402000Y-83865062D01*
X130596000Y-83865062D01*
X130596000Y-84530000D01*
X130748000Y-84682000D01*
X131700000Y-84682000D01*
X131700000Y-83530000D01*
X131548000Y-83378000D01*
X131083061Y-83378000D01*
X130859595Y-83470563D01*
X130688562Y-83641596D01*
X130596000Y-83865062D01*
X130402000Y-83865062D01*
X130402000Y-83566000D01*
X130394121Y-83527094D01*
X130371727Y-83494319D01*
X130338346Y-83472839D01*
X130302000Y-83466000D01*
X127086850Y-83466000D01*
X127180931Y-83427033D01*
X127648851Y-83009360D01*
X127921316Y-82444416D01*
X127879318Y-82348000D01*
X129972000Y-82348000D01*
X129972000Y-82787938D01*
X130064562Y-83011404D01*
X130235595Y-83182437D01*
X130459061Y-83275000D01*
X130774000Y-83275000D01*
X130926000Y-83123000D01*
X130926000Y-82196000D01*
X130124000Y-82196000D01*
X129972000Y-82348000D01*
X127879318Y-82348000D01*
X127813107Y-82196000D01*
X126519000Y-82196000D01*
X126519000Y-82216000D01*
X126211000Y-82216000D01*
X126211000Y-82196000D01*
X124916893Y-82196000D01*
X124808684Y-82444416D01*
X125081149Y-83009360D01*
X125549069Y-83427033D01*
X125643150Y-83466000D01*
X124560000Y-83466000D01*
X124560000Y-77268000D01*
X124757510Y-77268000D01*
X124757510Y-78082429D01*
X124850073Y-78305895D01*
X125021106Y-78476928D01*
X125244572Y-78569490D01*
X125438219Y-78569490D01*
X125164428Y-78979248D01*
X125065510Y-79476541D01*
X125065510Y-79527459D01*
X125164428Y-80024752D01*
X125446122Y-80446337D01*
X125680119Y-80602688D01*
X125549069Y-80656967D01*
X125081149Y-81074640D01*
X124808684Y-81639584D01*
X124916893Y-81888000D01*
X126211000Y-81888000D01*
X126211000Y-81868000D01*
X126519000Y-81868000D01*
X126519000Y-81888000D01*
X127813107Y-81888000D01*
X127921316Y-81639584D01*
X127755640Y-81296062D01*
X129972000Y-81296062D01*
X129972000Y-81736000D01*
X130124000Y-81888000D01*
X130926000Y-81888000D01*
X130926000Y-80961000D01*
X130774000Y-80809000D01*
X130459061Y-80809000D01*
X130235595Y-80901563D01*
X130064562Y-81072596D01*
X129972000Y-81296062D01*
X127755640Y-81296062D01*
X127648851Y-81074640D01*
X127180931Y-80656967D01*
X127049881Y-80602688D01*
X127283878Y-80446337D01*
X127565572Y-80024752D01*
X127664490Y-79527459D01*
X127664490Y-79476541D01*
X127565572Y-78979248D01*
X127291781Y-78569490D01*
X127485428Y-78569490D01*
X127708894Y-78476928D01*
X127879927Y-78305895D01*
X127972490Y-78082429D01*
X127972490Y-77268000D01*
X127820490Y-77116000D01*
X126519000Y-77116000D01*
X126519000Y-77136000D01*
X126211000Y-77136000D01*
X126211000Y-77116000D01*
X124909510Y-77116000D01*
X124757510Y-77268000D01*
X124560000Y-77268000D01*
X124560000Y-75841571D01*
X124757510Y-75841571D01*
X124757510Y-76656000D01*
X124909510Y-76808000D01*
X126211000Y-76808000D01*
X126211000Y-75506510D01*
X126519000Y-75506510D01*
X126519000Y-76808000D01*
X127820490Y-76808000D01*
X127972490Y-76656000D01*
X127972490Y-75841571D01*
X127879927Y-75618105D01*
X127708894Y-75447072D01*
X127485428Y-75354510D01*
X126671000Y-75354510D01*
X126519000Y-75506510D01*
X126211000Y-75506510D01*
X126059000Y-75354510D01*
X125244572Y-75354510D01*
X125021106Y-75447072D01*
X124850073Y-75618105D01*
X124757510Y-75841571D01*
X124560000Y-75841571D01*
X124560000Y-75305000D01*
X128249578Y-75305000D01*
X128994892Y-76050314D01*
M02*
