G04 #@! TF.FileFunction,Legend,Top*
%FSLAX46Y46*%
G04 Gerber Fmt 4.6, Leading zero omitted, Abs format (unit mm)*
G04 Created by KiCad (PCBNEW 4.0.5-e0-6337~49~ubuntu15.04.1) date Tue Dec 19 21:41:28 2017*
%MOMM*%
%LPD*%
G01*
G04 APERTURE LIST*
%ADD10C,0.100000*%
%ADD11C,0.150000*%
%ADD12C,0.200000*%
%ADD13C,0.120000*%
G04 APERTURE END LIST*
D10*
D11*
X142748000Y-77216000D02*
X142748000Y-76200000D01*
X142240000Y-76200000D02*
X142240000Y-77216000D01*
X142621000Y-76708000D02*
X142240000Y-76200000D01*
X142621000Y-76708000D02*
X142240000Y-77216000D01*
X143123357Y-83443428D02*
X143690024Y-83281524D01*
X143285262Y-83119619D01*
X143690024Y-82957714D01*
X143123357Y-82795809D01*
X143690024Y-82472000D02*
X143123357Y-82472000D01*
X142840024Y-82472000D02*
X142880500Y-82512476D01*
X142920976Y-82472000D01*
X142880500Y-82431524D01*
X142840024Y-82472000D01*
X142920976Y-82472000D01*
X143690024Y-81945809D02*
X143649548Y-82026762D01*
X143568595Y-82067238D01*
X142840024Y-82067238D01*
X143690024Y-81500571D02*
X143649548Y-81581524D01*
X143568595Y-81622000D01*
X142840024Y-81622000D01*
X143690024Y-81176762D02*
X143123357Y-81176762D01*
X142840024Y-81176762D02*
X142880500Y-81217238D01*
X142920976Y-81176762D01*
X142880500Y-81136286D01*
X142840024Y-81176762D01*
X142920976Y-81176762D01*
X143690024Y-80407714D02*
X143244786Y-80407714D01*
X143163833Y-80448191D01*
X143123357Y-80529143D01*
X143123357Y-80691048D01*
X143163833Y-80772000D01*
X143649548Y-80407714D02*
X143690024Y-80488667D01*
X143690024Y-80691048D01*
X143649548Y-80772000D01*
X143568595Y-80812476D01*
X143487643Y-80812476D01*
X143406690Y-80772000D01*
X143366214Y-80691048D01*
X143366214Y-80488667D01*
X143325738Y-80407714D01*
X143690024Y-80002952D02*
X143123357Y-80002952D01*
X143204310Y-80002952D02*
X143163833Y-79962476D01*
X143123357Y-79881523D01*
X143123357Y-79760095D01*
X143163833Y-79679143D01*
X143244786Y-79638666D01*
X143690024Y-79638666D01*
X143244786Y-79638666D02*
X143163833Y-79598190D01*
X143123357Y-79517238D01*
X143123357Y-79395809D01*
X143163833Y-79314857D01*
X143244786Y-79274381D01*
X143690024Y-79274381D01*
X143285262Y-78343429D02*
X143244786Y-78383905D01*
X143204310Y-78464857D01*
X143204310Y-78545810D01*
X143244786Y-78626762D01*
X143285262Y-78667238D01*
X143366214Y-78707714D01*
X143447167Y-78707714D01*
X143528119Y-78667238D01*
X143568595Y-78626762D01*
X143609071Y-78545810D01*
X143609071Y-78464857D01*
X143568595Y-78383905D01*
X143528119Y-78343429D01*
X143204310Y-78343429D02*
X143528119Y-78343429D01*
X143568595Y-78302952D01*
X143568595Y-78262476D01*
X143528119Y-78181524D01*
X143447167Y-78141048D01*
X143244786Y-78141048D01*
X143123357Y-78222000D01*
X143042405Y-78343429D01*
X143001929Y-78505333D01*
X143042405Y-78667238D01*
X143123357Y-78788667D01*
X143244786Y-78869619D01*
X143406690Y-78910095D01*
X143568595Y-78869619D01*
X143690024Y-78788667D01*
X143770976Y-78667238D01*
X143811452Y-78505333D01*
X143770976Y-78343429D01*
X143690024Y-78222000D01*
X145115024Y-86216047D02*
X144265024Y-86216047D01*
X144588833Y-86216047D02*
X144548357Y-86135095D01*
X144548357Y-85973190D01*
X144588833Y-85892238D01*
X144629310Y-85851761D01*
X144710262Y-85811285D01*
X144953119Y-85811285D01*
X145034071Y-85851761D01*
X145074548Y-85892238D01*
X145115024Y-85973190D01*
X145115024Y-86135095D01*
X145074548Y-86216047D01*
X145115024Y-85446999D02*
X144548357Y-85446999D01*
X144710262Y-85446999D02*
X144629310Y-85406523D01*
X144588833Y-85366047D01*
X144548357Y-85285094D01*
X144548357Y-85204142D01*
X145115024Y-84799380D02*
X145074548Y-84880333D01*
X145034071Y-84920809D01*
X144953119Y-84961285D01*
X144710262Y-84961285D01*
X144629310Y-84920809D01*
X144588833Y-84880333D01*
X144548357Y-84799380D01*
X144548357Y-84677952D01*
X144588833Y-84597000D01*
X144629310Y-84556523D01*
X144710262Y-84516047D01*
X144953119Y-84516047D01*
X145034071Y-84556523D01*
X145074548Y-84597000D01*
X145115024Y-84677952D01*
X145115024Y-84799380D01*
X145115024Y-83787475D02*
X144265024Y-83787475D01*
X145074548Y-83787475D02*
X145115024Y-83868428D01*
X145115024Y-84030332D01*
X145074548Y-84111285D01*
X145034071Y-84151761D01*
X144953119Y-84192237D01*
X144710262Y-84192237D01*
X144629310Y-84151761D01*
X144588833Y-84111285D01*
X144548357Y-84030332D01*
X144548357Y-83868428D01*
X144588833Y-83787475D01*
X145115024Y-83382713D02*
X144548357Y-83382713D01*
X144265024Y-83382713D02*
X144305500Y-83423189D01*
X144345976Y-83382713D01*
X144305500Y-83342237D01*
X144265024Y-83382713D01*
X144345976Y-83382713D01*
X145074548Y-82654142D02*
X145115024Y-82735094D01*
X145115024Y-82896999D01*
X145074548Y-82977951D01*
X144993595Y-83018427D01*
X144669786Y-83018427D01*
X144588833Y-82977951D01*
X144548357Y-82896999D01*
X144548357Y-82735094D01*
X144588833Y-82654142D01*
X144669786Y-82613665D01*
X144750738Y-82613665D01*
X144831690Y-83018427D01*
X144791214Y-82249380D02*
X144791214Y-81601761D01*
X144548357Y-81318428D02*
X144548357Y-80994618D01*
X144265024Y-81196999D02*
X144993595Y-81196999D01*
X145074548Y-81156523D01*
X145115024Y-81075570D01*
X145115024Y-80994618D01*
X144548357Y-80792237D02*
X145115024Y-80589856D01*
X144548357Y-80387476D02*
X145115024Y-80589856D01*
X145317405Y-80670809D01*
X145357881Y-80711285D01*
X145398357Y-80792237D01*
X145115024Y-80063666D02*
X144548357Y-80063666D01*
X144710262Y-80063666D02*
X144629310Y-80023190D01*
X144588833Y-79982714D01*
X144548357Y-79901761D01*
X144548357Y-79820809D01*
X145115024Y-79537476D02*
X144548357Y-79537476D01*
X144710262Y-79537476D02*
X144629310Y-79497000D01*
X144588833Y-79456524D01*
X144548357Y-79375571D01*
X144548357Y-79294619D01*
X145074548Y-78687477D02*
X145115024Y-78768429D01*
X145115024Y-78930334D01*
X145074548Y-79011286D01*
X144993595Y-79051762D01*
X144669786Y-79051762D01*
X144588833Y-79011286D01*
X144548357Y-78930334D01*
X144548357Y-78768429D01*
X144588833Y-78687477D01*
X144669786Y-78647000D01*
X144750738Y-78647000D01*
X144831690Y-79051762D01*
X145115024Y-78161286D02*
X145074548Y-78242239D01*
X144993595Y-78282715D01*
X144265024Y-78282715D01*
X145115024Y-77716048D02*
X145074548Y-77797001D01*
X144993595Y-77837477D01*
X144265024Y-77837477D01*
X145034071Y-77392239D02*
X145074548Y-77351763D01*
X145115024Y-77392239D01*
X145074548Y-77432715D01*
X145034071Y-77392239D01*
X145115024Y-77392239D01*
X145115024Y-76866048D02*
X145074548Y-76947001D01*
X145034071Y-76987477D01*
X144953119Y-77027953D01*
X144710262Y-77027953D01*
X144629310Y-76987477D01*
X144588833Y-76947001D01*
X144548357Y-76866048D01*
X144548357Y-76744620D01*
X144588833Y-76663668D01*
X144629310Y-76623191D01*
X144710262Y-76582715D01*
X144953119Y-76582715D01*
X145034071Y-76623191D01*
X145074548Y-76663668D01*
X145115024Y-76744620D01*
X145115024Y-76866048D01*
X145115024Y-76218429D02*
X144548357Y-76218429D01*
X144710262Y-76218429D02*
X144629310Y-76177953D01*
X144588833Y-76137477D01*
X144548357Y-76056524D01*
X144548357Y-75975572D01*
X144548357Y-75327953D02*
X145236452Y-75327953D01*
X145317405Y-75368430D01*
X145357881Y-75408906D01*
X145398357Y-75489858D01*
X145398357Y-75611287D01*
X145357881Y-75692239D01*
X145074548Y-75327953D02*
X145115024Y-75408906D01*
X145115024Y-75570810D01*
X145074548Y-75651763D01*
X145034071Y-75692239D01*
X144953119Y-75732715D01*
X144710262Y-75732715D01*
X144629310Y-75692239D01*
X144588833Y-75651763D01*
X144548357Y-75570810D01*
X144548357Y-75408906D01*
X144588833Y-75327953D01*
D12*
X121936000Y-82113429D02*
X122697905Y-82113429D01*
X122316953Y-82494381D02*
X122316953Y-81732476D01*
X121361429Y-79102000D02*
X121285238Y-79063905D01*
X121170953Y-79063905D01*
X121056667Y-79102000D01*
X120980476Y-79178190D01*
X120942381Y-79254381D01*
X120904286Y-79406762D01*
X120904286Y-79521048D01*
X120942381Y-79673429D01*
X120980476Y-79749619D01*
X121056667Y-79825810D01*
X121170953Y-79863905D01*
X121247143Y-79863905D01*
X121361429Y-79825810D01*
X121399524Y-79787714D01*
X121399524Y-79521048D01*
X121247143Y-79521048D01*
X121742381Y-79863905D02*
X121742381Y-79063905D01*
X122199524Y-79863905D01*
X122199524Y-79063905D01*
X122580476Y-79863905D02*
X122580476Y-79063905D01*
X122770952Y-79063905D01*
X122885238Y-79102000D01*
X122961429Y-79178190D01*
X122999524Y-79254381D01*
X123037619Y-79406762D01*
X123037619Y-79521048D01*
X122999524Y-79673429D01*
X122961429Y-79749619D01*
X122885238Y-79825810D01*
X122770952Y-79863905D01*
X122580476Y-79863905D01*
X121640762Y-84397905D02*
X121793143Y-84397905D01*
X121869334Y-84436000D01*
X121945524Y-84512190D01*
X121983619Y-84664571D01*
X121983619Y-84931238D01*
X121945524Y-85083619D01*
X121869334Y-85159810D01*
X121793143Y-85197905D01*
X121640762Y-85197905D01*
X121564572Y-85159810D01*
X121488381Y-85083619D01*
X121450286Y-84931238D01*
X121450286Y-84664571D01*
X121488381Y-84512190D01*
X121564572Y-84436000D01*
X121640762Y-84397905D01*
X122326476Y-85197905D02*
X122326476Y-84397905D01*
X122516952Y-84397905D01*
X122631238Y-84436000D01*
X122707429Y-84512190D01*
X122745524Y-84588381D01*
X122783619Y-84740762D01*
X122783619Y-84855048D01*
X122745524Y-85007429D01*
X122707429Y-85083619D01*
X122631238Y-85159810D01*
X122516952Y-85197905D01*
X122326476Y-85197905D01*
X121936000Y-77033429D02*
X122697905Y-77033429D01*
X122316953Y-77414381D02*
X122316953Y-76652476D01*
D13*
X136534000Y-81626000D02*
X136534000Y-80426000D01*
X138294000Y-80426000D02*
X138294000Y-81626000D01*
X132580000Y-81192000D02*
X131580000Y-81192000D01*
X131580000Y-82892000D02*
X132580000Y-82892000D01*
X136564000Y-76716000D02*
X136564000Y-77716000D01*
X138264000Y-77716000D02*
X138264000Y-76716000D01*
D11*
X129463800Y-86072980D02*
X129463800Y-75471020D01*
X129065020Y-75471020D02*
X129065020Y-86072980D01*
X123764040Y-75471020D02*
X123764040Y-86072980D01*
X123266200Y-86072980D02*
X123266200Y-75471020D01*
X123764040Y-83268820D02*
X123266200Y-83268820D01*
X123764040Y-80772000D02*
X123266200Y-80772000D01*
X123266200Y-75674220D02*
X123764040Y-75674220D01*
X123764040Y-85872320D02*
X123266200Y-85872320D01*
X123266200Y-78275180D02*
X123764040Y-78275180D01*
X123266200Y-86070440D02*
X129463800Y-86070440D01*
X129463800Y-75476100D02*
X123266200Y-75476100D01*
D13*
X136916000Y-85342000D02*
X137846000Y-85342000D01*
X140076000Y-85342000D02*
X139146000Y-85342000D01*
X140076000Y-85342000D02*
X140076000Y-83182000D01*
X136916000Y-85342000D02*
X136916000Y-83882000D01*
X134705000Y-79432000D02*
X134705000Y-80632000D01*
X134705000Y-80632000D02*
X132005000Y-80632000D01*
X130705000Y-75832000D02*
X134705000Y-75832000D01*
X134705000Y-75832000D02*
X134705000Y-77032000D01*
X141222000Y-82352000D02*
X141222000Y-81422000D01*
X141222000Y-79192000D02*
X141222000Y-80122000D01*
X141222000Y-79192000D02*
X139062000Y-79192000D01*
X141222000Y-82352000D02*
X139762000Y-82352000D01*
X134338000Y-83836000D02*
X130038000Y-83836000D01*
X130038000Y-83836000D02*
X130038000Y-85836000D01*
X130038000Y-85836000D02*
X134338000Y-85836000D01*
X144294000Y-77408000D02*
X144294000Y-76008000D01*
X144294000Y-76008000D02*
X141494000Y-76008000D01*
X144294000Y-77408000D02*
X141494000Y-77408000D01*
X138566000Y-77816000D02*
X138566000Y-76616000D01*
X140326000Y-76616000D02*
X140326000Y-77816000D01*
X141767000Y-84464000D02*
X142967000Y-84464000D01*
X142967000Y-86224000D02*
X141767000Y-86224000D01*
D11*
X136342381Y-81827666D02*
X135866190Y-82161000D01*
X136342381Y-82399095D02*
X135342381Y-82399095D01*
X135342381Y-82018142D01*
X135390000Y-81922904D01*
X135437619Y-81875285D01*
X135532857Y-81827666D01*
X135675714Y-81827666D01*
X135770952Y-81875285D01*
X135818571Y-81922904D01*
X135866190Y-82018142D01*
X135866190Y-82399095D01*
X136342381Y-80875285D02*
X136342381Y-81446714D01*
X136342381Y-81161000D02*
X135342381Y-81161000D01*
X135485238Y-81256238D01*
X135580476Y-81351476D01*
X135628095Y-81446714D01*
X134850143Y-82081666D02*
X134897762Y-82129285D01*
X134945381Y-82272142D01*
X134945381Y-82367380D01*
X134897762Y-82510238D01*
X134802524Y-82605476D01*
X134707286Y-82653095D01*
X134516810Y-82700714D01*
X134373952Y-82700714D01*
X134183476Y-82653095D01*
X134088238Y-82605476D01*
X133993000Y-82510238D01*
X133945381Y-82367380D01*
X133945381Y-82272142D01*
X133993000Y-82129285D01*
X134040619Y-82081666D01*
X134945381Y-81129285D02*
X134945381Y-81700714D01*
X134945381Y-81415000D02*
X133945381Y-81415000D01*
X134088238Y-81510238D01*
X134183476Y-81605476D01*
X134231095Y-81700714D01*
X136247143Y-76112666D02*
X136294762Y-76160285D01*
X136342381Y-76303142D01*
X136342381Y-76398380D01*
X136294762Y-76541238D01*
X136199524Y-76636476D01*
X136104286Y-76684095D01*
X135913810Y-76731714D01*
X135770952Y-76731714D01*
X135580476Y-76684095D01*
X135485238Y-76636476D01*
X135390000Y-76541238D01*
X135342381Y-76398380D01*
X135342381Y-76303142D01*
X135390000Y-76160285D01*
X135437619Y-76112666D01*
X135437619Y-75731714D02*
X135390000Y-75684095D01*
X135342381Y-75588857D01*
X135342381Y-75350761D01*
X135390000Y-75255523D01*
X135437619Y-75207904D01*
X135532857Y-75160285D01*
X135628095Y-75160285D01*
X135770952Y-75207904D01*
X136342381Y-75779333D01*
X136342381Y-75160285D01*
X127722381Y-81105333D02*
X128436667Y-81105333D01*
X128579524Y-81152953D01*
X128674762Y-81248191D01*
X128722381Y-81391048D01*
X128722381Y-81486286D01*
X128722381Y-80105333D02*
X128722381Y-80676762D01*
X128722381Y-80391048D02*
X127722381Y-80391048D01*
X127865238Y-80486286D01*
X127960476Y-80581524D01*
X128008095Y-80676762D01*
X136810762Y-86272619D02*
X136715524Y-86225000D01*
X136620286Y-86129762D01*
X136477429Y-85986905D01*
X136382190Y-85939286D01*
X136286952Y-85939286D01*
X136334571Y-86177381D02*
X136239333Y-86129762D01*
X136144095Y-86034524D01*
X136096476Y-85844048D01*
X136096476Y-85510714D01*
X136144095Y-85320238D01*
X136239333Y-85225000D01*
X136334571Y-85177381D01*
X136525048Y-85177381D01*
X136620286Y-85225000D01*
X136715524Y-85320238D01*
X136763143Y-85510714D01*
X136763143Y-85844048D01*
X136715524Y-86034524D01*
X136620286Y-86129762D01*
X136525048Y-86177381D01*
X136334571Y-86177381D01*
X137715524Y-86177381D02*
X137144095Y-86177381D01*
X137429809Y-86177381D02*
X137429809Y-85177381D01*
X137334571Y-85320238D01*
X137239333Y-85415476D01*
X137144095Y-85463095D01*
X132842095Y-79462381D02*
X132842095Y-80271905D01*
X132889714Y-80367143D01*
X132937333Y-80414762D01*
X133032571Y-80462381D01*
X133223048Y-80462381D01*
X133318286Y-80414762D01*
X133365905Y-80367143D01*
X133413524Y-80271905D01*
X133413524Y-79462381D01*
X134413524Y-80462381D02*
X133842095Y-80462381D01*
X134127809Y-80462381D02*
X134127809Y-79462381D01*
X134032571Y-79605238D01*
X133937333Y-79700476D01*
X133842095Y-79748095D01*
X140716095Y-81494381D02*
X140716095Y-82303905D01*
X140763714Y-82399143D01*
X140811333Y-82446762D01*
X140906571Y-82494381D01*
X141097048Y-82494381D01*
X141192286Y-82446762D01*
X141239905Y-82399143D01*
X141287524Y-82303905D01*
X141287524Y-81494381D01*
X141716095Y-81589619D02*
X141763714Y-81542000D01*
X141858952Y-81494381D01*
X142097048Y-81494381D01*
X142192286Y-81542000D01*
X142239905Y-81589619D01*
X142287524Y-81684857D01*
X142287524Y-81780095D01*
X142239905Y-81922952D01*
X141668476Y-82494381D01*
X142287524Y-82494381D01*
X136342381Y-84812095D02*
X135342381Y-84812095D01*
X135342381Y-84574000D01*
X135390000Y-84431142D01*
X135485238Y-84335904D01*
X135580476Y-84288285D01*
X135770952Y-84240666D01*
X135913810Y-84240666D01*
X136104286Y-84288285D01*
X136199524Y-84335904D01*
X136294762Y-84431142D01*
X136342381Y-84574000D01*
X136342381Y-84812095D01*
X136342381Y-83288285D02*
X136342381Y-83859714D01*
X136342381Y-83574000D02*
X135342381Y-83574000D01*
X135485238Y-83669238D01*
X135580476Y-83764476D01*
X135628095Y-83859714D01*
X140739905Y-78684381D02*
X140739905Y-77684381D01*
X140978000Y-77684381D01*
X141120858Y-77732000D01*
X141216096Y-77827238D01*
X141263715Y-77922476D01*
X141311334Y-78112952D01*
X141311334Y-78255810D01*
X141263715Y-78446286D01*
X141216096Y-78541524D01*
X141120858Y-78636762D01*
X140978000Y-78684381D01*
X140739905Y-78684381D01*
X141692286Y-77779619D02*
X141739905Y-77732000D01*
X141835143Y-77684381D01*
X142073239Y-77684381D01*
X142168477Y-77732000D01*
X142216096Y-77779619D01*
X142263715Y-77874857D01*
X142263715Y-77970095D01*
X142216096Y-78112952D01*
X141644667Y-78684381D01*
X142263715Y-78684381D01*
X139279334Y-77668381D02*
X138946000Y-77192190D01*
X138707905Y-77668381D02*
X138707905Y-76668381D01*
X139088858Y-76668381D01*
X139184096Y-76716000D01*
X139231715Y-76763619D01*
X139279334Y-76858857D01*
X139279334Y-77001714D01*
X139231715Y-77096952D01*
X139184096Y-77144571D01*
X139088858Y-77192190D01*
X138707905Y-77192190D01*
X139660286Y-76763619D02*
X139707905Y-76716000D01*
X139803143Y-76668381D01*
X140041239Y-76668381D01*
X140136477Y-76716000D01*
X140184096Y-76763619D01*
X140231715Y-76858857D01*
X140231715Y-76954095D01*
X140184096Y-77096952D01*
X139612667Y-77668381D01*
X140231715Y-77668381D01*
X141565334Y-84272381D02*
X141232000Y-83796190D01*
X140993905Y-84272381D02*
X140993905Y-83272381D01*
X141374858Y-83272381D01*
X141470096Y-83320000D01*
X141517715Y-83367619D01*
X141565334Y-83462857D01*
X141565334Y-83605714D01*
X141517715Y-83700952D01*
X141470096Y-83748571D01*
X141374858Y-83796190D01*
X140993905Y-83796190D01*
X141898667Y-83272381D02*
X142517715Y-83272381D01*
X142184381Y-83653333D01*
X142327239Y-83653333D01*
X142422477Y-83700952D01*
X142470096Y-83748571D01*
X142517715Y-83843810D01*
X142517715Y-84081905D01*
X142470096Y-84177143D01*
X142422477Y-84224762D01*
X142327239Y-84272381D01*
X142041524Y-84272381D01*
X141946286Y-84224762D01*
X141898667Y-84177143D01*
M02*
